<?xml version="1.0" encoding="UTF-8"?>
<svg width="116px" height="36px" viewBox="0 0 116 36" version="1.1" xmlns="http://www.w3.org/2000/svg" xmlns:xlink="http://www.w3.org/1999/xlink">
    <title>Console-logo-color-RGB</title>
    <g id="INFINILabs.com" stroke="none" stroke-width="1" fill="none" fill-rule="evenodd">
        <g id="首页2" transform="translate(-1405, -287)" fill="#FFFFFF" fill-rule="nonzero">
            <g id="Console-logo-color-RGB" transform="translate(1405, 287)">
                <g id="编组" transform="translate(39.4868, 3.7642)">
                    <g id="路径">
                        <polygon points="0 11.2988956 2.42868857 0.288564304 5.25053299 0.288564304 2.87891543 11.3566085 9.01142047e-15 11.2988956"></polygon>
                        <polygon points="4.96517794 11.3566085 7.45093752 0 7.72995135 0 13.766796 6.50231564 15.1238179 0.455290346 17.7744492 0.455290346 15.2379599 11.8696117 15.0096758 11.8696117 8.91576013 5.36729605 7.61580933 11.3566085"></polygon>
                        <polygon points="17.6032362 11.4720342 20.0319248 0.461702886 27.4257913 0.519415746 26.9184934 2.74456715 22.3464713 2.68685429 21.8391735 4.85429284 25.9609687 4.9120057 25.4536708 7.13715711 21.3318756 7.07944425 20.3743508 11.4143213 17.6095774 11.4720342"></polygon>
                        <polygon points="26.9184934 11.5297471 29.347182 0.577128607 32.1690264 0.577128607 29.7403378 11.5874599 26.9184934 11.5297471"></polygon>
                        <polygon points="31.7695293 11.5810474 34.2552889 0.224438903 34.5343027 0.224438903 40.5711474 6.72675454 41.9281692 0.679729248 44.5788006 0.679729248 42.0423113 12.0940506 41.8140272 12.0940506 35.9991253 5.59173495 34.6421035 11.5810474 31.7631881 11.5810474"></polygon>
                        <polygon points="44.3505166 11.6964731 46.7792052 0.686141788 49.6010496 0.686141788 47.172361 11.6964731"></polygon>
                    </g>
                    <g transform="translate(1.3, 13.787)">
                        <path d="M51.5731701,6.58567866 C50.6727163,6.58567866 49.9371344,7.15639473 49.7659214,8.18240114 L53.3233477,8.240114 C53.3233477,7.21410759 52.5306948,6.58567866 51.5731701,6.58567866 L51.5731701,6.58567866 Z" id="路径"></path>
                        <path d="M39.5502105,6.58567866 C38.5356147,6.58567866 37.6288198,7.27182045 37.6288198,8.81083007 C37.6288198,10.3498397 38.4722025,11.0936943 39.4931395,11.0936943 C40.5140764,11.0936943 41.4652599,10.3498397 41.4652599,8.86854293 C41.4652599,7.32953331 40.5648062,6.58567866 39.5438692,6.58567866 L39.5502105,6.58567866 Z" id="路径"></path>
                        <path d="M15.0096758,6.35482722 C13.9950801,6.35482722 13.0882851,7.04096901 13.0882851,8.57997862 C13.0882851,10.1189882 13.9316679,10.8628429 14.9526048,10.8628429 C15.9735418,10.8628429 16.9247253,10.1189882 16.9247253,8.63769149 C16.9247253,7.09868187 16.0242716,6.35482722 15.0033346,6.35482722 L15.0096758,6.35482722 Z" id="路径"></path>
                        <path d="M3.27207128,0.0192376202 L2.42868857,3.89882437 C3.27207128,3.09725686 4.45788006,2.64196651 5.75783086,2.64196651 C7.84409337,2.64196651 9.53720002,3.78339865 10.1586399,5.77769861 L7.95823539,5.77769861 C7.50800853,4.86711792 6.7153556,4.40541503 5.70075985,4.40541503 C4.06472421,4.40541503 2.87891543,5.60456003 2.82184442,7.54114713 C2.82184442,9.48414678 3.95058219,10.7345921 5.64368884,10.7345921 C6.65828459,10.7345921 7.45093752,10.2793017 7.95823539,9.36230851 L10.1586399,9.36230851 C9.48012901,11.3053082 7.78702236,12.3890274 5.64368884,12.3890274 C3.50035533,12.3890274 1.86431969,11.1898824 1.18580878,9.30459565 L0,14.6654792 L58.1173126,14.6077663 L61.3323129,0 L3.27207128,0 L3.27207128,0.0192376202 Z M14.9526048,12.5172782 C12.8092713,12.5172782 11.1732357,10.9782686 11.1732357,8.57997862 C11.1732357,6.18168864 12.9234133,4.70039188 15.0667468,4.70039188 C17.2100804,4.70039188 18.903187,6.2394015 18.903187,8.63769149 C18.846116,11.0359815 17.0959383,12.5172782 14.9526048,12.5172782 Z M27.2545783,12.5172782 L25.3331876,12.5172782 L25.3902586,8.34912718 C25.3902586,7.14998219 24.7688187,6.4638404 23.7542229,6.4638404 C22.7396272,6.4638404 22.0611163,7.09226933 22.0611163,8.34912718 L22.0040453,12.5172782 L20.0826546,12.5172782 L20.1397256,4.93124332 L22.0611163,4.93124332 L22.0611163,5.89953687 C22.5684141,5.27110794 23.3610671,4.87353046 24.3185918,4.87353046 C26.0687695,4.87353046 27.3116493,6.07267545 27.3116493,8.12468828 L27.2545783,12.5172782 Z M31.7695293,12.632704 C29.9052096,12.632704 28.6116001,11.4912718 28.497458,10.0676879 L30.4188487,10.0676879 C30.4759198,10.638404 30.9832176,11.0936943 31.7758706,11.0936943 C32.5114525,11.0936943 32.9046083,10.7538297 32.9616793,10.2921268 C32.9616793,8.91984325 28.7320833,9.77912362 28.7320833,6.98325615 C28.7320833,5.72639829 29.8608211,4.70039188 31.7251408,4.75810474 C33.5323894,4.75810474 34.6040562,5.78411115 34.7181982,7.27182045 L32.9109495,7.27182045 C32.8538785,6.70110438 32.4036517,6.3035269 31.6680698,6.3035269 C30.9895588,6.3035269 30.596403,6.58567866 30.596403,7.04738155 C30.596403,8.41966512 34.768928,7.61809761 34.768928,10.3562522 C34.768928,11.7285358 33.6401902,12.6968294 31.7758706,12.6391165 L31.7695293,12.632704 Z M39.4994807,12.7481297 C37.3561472,12.7481297 35.7201115,11.2091201 35.7201115,8.81083007 C35.7201115,6.41254008 37.4702892,4.93124332 39.6136227,4.93124332 C41.7569562,4.93124332 43.4500629,6.47025294 43.4500629,8.86854293 C43.3929919,11.2091201 41.6998852,12.7481297 39.4994807,12.7481297 L39.4994807,12.7481297 Z M46.5509211,12.6904168 L44.6295304,12.6904168 L44.7436724,2.53295333 L46.6650631,2.53295333 L46.5509211,12.6904168 Z M55.2383972,9.49697186 L49.7659214,9.439259 C49.8800634,10.5806911 50.6093041,11.2091201 51.5731701,11.2091201 C52.365823,11.2091201 52.8160499,10.8115426 53.0950637,10.2985394 L55.1242552,10.2985394 C54.7310993,11.6708229 53.4311485,12.8122551 51.5668288,12.7545422 C49.3664243,12.7545422 47.8445307,11.2155326 47.8445307,8.81724261 C47.8445307,6.41895262 49.4234953,4.93765586 51.6238999,4.93765586 C53.8243044,4.93765586 55.289127,6.47666548 55.289127,8.70181689 C55.289127,9.04168151 55.289127,9.27253295 55.232056,9.5033844 L55.2383972,9.49697186 Z" id="形状"></path>
                    </g>
                    <g transform="translate(60.9392, 13.8062)" id="路径">
                        <polygon points="3.95058219 14.6654792 0 14.6654792 3.27207128 0 7.22265347 0"></polygon>
                        <polygon points="8.69381731 14.6654792 5.9290439 14.6654792 9.14404417 0 11.9088176 0"></polygon>
                        <polygon points="12.3019734 14.6654792 10.8371508 14.6654792 14.1092221 0 15.5740447 0"></polygon>
                    </g>
                </g>
                <g id="编组">
                    <path d="M17.7998141,36 C7.98360028,36 0,27.926612 0,18 C0,8.07338796 7.98360028,0 17.7998141,0 C27.616028,0 35.5996283,8.07338796 35.5996283,18 C35.5996283,27.926612 27.616028,36 17.7998141,36 Z M17.7998141,1.94941218 C9.04892582,1.94941218 1.92773192,9.15069469 1.92773192,18 C1.92773192,26.8493053 9.04892582,34.0505878 17.7998141,34.0505878 C26.5507025,34.0505878 33.6718964,26.8493053 33.6718964,18 C33.6718964,9.15069469 26.5507025,1.94941218 17.7998141,1.94941218 Z" id="形状"></path>
                    <g transform="translate(7.4509, 4.5657)" id="路径">
                        <path d="M20.3997157,3.68721055 C18.9285519,2.06483791 17.0832559,0.78874243 15.0096758,0 C15.0096758,0.00641254008 15.0096758,0.0128250802 15.0096758,0.0128250802 L12.5365987,11.5874599 L3.70327448,5.23904524 L2.47307713,11.1770574 L16.7154649,21.2575704 L20.406057,3.68721055"></path>
                        <path d="M7.24167714,17.7755611 L1.88968458,13.9600998 L0,22.8158176 C1.48384628,24.4125401 3.33548352,25.6565729 5.4154048,26.4196651 L7.24167714,17.7755611 L7.24167714,17.7755611 Z"></path>
                    </g>
                </g>
            </g>
        </g>
    </g>
</svg>