<?xml version="1.0" encoding="UTF-8"?>
<svg width="123px" height="36px" viewBox="0 0 123 36" version="1.1" xmlns="http://www.w3.org/2000/svg" xmlns:xlink="http://www.w3.org/1999/xlink">
    <title>Gateway-logo-color-RGB</title>
    <g id="INFINILabs.com" stroke="none" stroke-width="1" fill="none" fill-rule="evenodd">
        <g id="首页2" transform="translate(-1405, -373)" fill="#FFFFFF" fill-rule="nonzero">
            <g id="Gateway-logo-color-RGB" transform="translate(1405, 373)">
                <g id="编组">
                    <path d="M17.9086571,36 C8.03241869,36 0,27.926612 0,18 C0,8.07338796 8.03241869,0 17.9086571,0 C27.7848955,0 35.8173142,8.07338796 35.8173142,18 C35.8173142,27.926612 27.7848955,36 17.9086571,36 Z M17.9086571,1.94941218 C9.10425852,1.94941218 1.93951968,9.15069469 1.93951968,18 C1.93951968,26.8493053 9.10425852,34.0505878 17.9086571,34.0505878 C26.7130557,34.0505878 33.8777945,26.8493053 33.8777945,18 C33.8777945,9.15069469 26.7130557,1.94941218 17.9086571,1.94941218 Z" id="形状"></path>
                    <g transform="translate(7.4965, 4.5657)" id="路径">
                        <path d="M20.5244567,3.68721055 C19.0442969,2.06483791 17.1877172,0.78874243 15.1014575,0 C15.1014575,0.00641254008 15.1014575,0.0128250802 15.1014575,0.0128250802 L12.6132579,11.5874599 L3.72591939,5.23904524 L2.4881996,11.1770574 L16.8176773,21.2575704 L20.5308367,3.68721055"></path>
                        <path d="M7.28595882,17.7755611 L1.90123969,13.9600998 L0,22.8158176 C1.49291976,24.4125401 3.35587945,25.6565729 5.44851911,26.4196651 L7.28595882,17.7755611 L7.28595882,17.7755611 Z"></path>
                    </g>
                </g>
                <g id="编组" transform="translate(39.7283, 3.7642)">
                    <g id="路径">
                        <polygon points="0 11.2988956 2.4435396 0.288564304 5.28263914 0.288564304 2.89651953 11.3566085 9.06652383e-15 11.2988956"></polygon>
                        <polygon points="4.99553919 11.3566085 7.49649878 0 7.77721874 0 13.8509777 6.50231564 15.2162975 0.455290346 17.8831371 0.455290346 15.3311375 11.8696117 15.1014575 11.8696117 8.97027854 5.36729605 7.66237875 11.3566085"></polygon>
                        <polygon points="17.7108771 11.4720342 20.1544167 0.461702886 27.5934955 0.519415746 27.0830956 2.74456715 22.4831163 2.68685429 21.9727164 4.85429284 26.1197158 4.9120057 25.6093158 7.13715711 21.4623165 7.07944425 20.4989367 11.4143213 17.7172571 11.4720342"></polygon>
                        <polygon points="27.0830956 11.5297471 29.5266352 0.570716067 32.3657347 0.570716067 29.9221951 11.5810474 27.0830956 11.5233345"></polygon>
                        <polygon points="31.9637948 11.5810474 34.4647544 0.224438903 34.7454744 0.224438903 40.8192334 6.72675454 42.1845531 0.679729248 44.8513927 0.679729248 42.2993931 12.0940506 42.0697132 12.0940506 36.2192541 5.59173495 34.8539343 11.5810474 31.9574148 11.5810474"></polygon>
                        <polygon points="44.6217127 11.6964731 47.0652523 0.686141788 49.9043519 0.686141788 47.4608123 11.6964731"></polygon>
                    </g>
                    <g transform="translate(1.4546, 13.7549)">
                        <path d="M3.12619949,0 L2.32869962,3.65514784 C3.17723948,2.85358033 4.37029929,2.39828999 5.67819908,2.45600285 C7.77721874,2.45600285 9.48067846,3.59743498 10.1059184,5.48272177 L7.89205872,5.48272177 C7.43907879,4.68115426 6.69899891,4.22586391 5.67819908,4.22586391 C3.97473935,4.22586391 2.78167955,5.42500891 2.78167955,7.31029569 C2.78167955,9.19558247 3.97473935,10.4460278 5.73561907,10.5037406 C7.20939883,10.5037406 8.17915867,9.65087282 8.45987862,8.3363021 L5.16779916,8.3363021 L5.16779916,6.85500534 L10.3355983,6.9127182 L10.3355983,8.56715354 C9.94003838,10.5101532 8.17915867,12.2736017 5.67819908,12.2736017 C3.57917942,12.2736017 1.8757197,11.0744567 1.19305981,9.24688279 L0,14.723192 L56.6033508,14.6654792 L57.6241506,12.3826149 L54.6702111,4.96330602 L56.8266508,4.96330602 L58.7597904,10.2728892 L60.8013901,4.96330602 L62.8429898,4.96330602 L58.6959905,14.6077663 L64.5974895,14.6077663 L67.832149,0 L3.12619949,0 L3.12619949,0 Z M19.0251569,12.2094763 L17.0920172,12.2094763 L17.0920172,11.125757 C16.6390373,11.754186 15.7841174,12.324902 14.5910576,12.324902 C12.6579179,12.324902 11.1841382,10.7281796 11.1841382,8.32988956 C11.1841382,5.93159957 12.7153379,4.45030281 14.6484776,4.45030281 C15.8415374,4.45030281 16.6900773,5.02101888 17.1494372,5.64944781 L17.1494372,4.56572854 L19.0825769,4.56572854 L19.0251569,12.2094763 L19.0251569,12.2094763 Z M24.818196,6.27787674 L23.1147362,6.27787674 L23.0573163,9.93302458 C23.0573163,10.4460278 23.2295762,10.6768792 23.8548161,10.6768792 L24.760776,10.6768792 L24.760776,12.2736017 L23.5677162,12.2736017 C22.1513564,12.2736017 21.1815966,11.6451728 21.1815966,9.87531172 L21.2390165,6.22016388 L20.3330567,6.22016388 L20.3330567,4.6234414 L21.2390165,4.6234414 L21.2390165,2.73815461 L23.1721562,2.73815461 L23.1721562,4.6234414 L24.875616,4.6234414 L24.818196,6.27787674 L24.818196,6.27787674 Z M33.1632346,9.13145707 L27.6572955,9.07374421 C27.7721355,10.2151763 28.5058354,10.8436053 29.4755952,10.8436053 C30.2730951,10.8436053 30.726075,10.4460278 31.006795,9.93302458 L33.0483946,9.93302458 C32.6528347,11.3053082 31.3449349,12.4467403 29.4692152,12.3890274 C27.2553556,12.3890274 25.7241558,10.8500178 25.7241558,8.45172782 C25.7241558,6.05343783 27.3127756,4.57214108 29.5266352,4.57214108 C31.7404948,4.57214108 33.2142746,6.11115069 33.2142746,8.3363021 C33.2142746,8.67616673 33.2142746,8.90701817 33.1568546,9.13786961 L33.1632346,9.13145707 Z M42.816173,12.4403278 L40.7745734,12.4403278 L39.4666736,7.13074457 L38.0503138,12.4403278 L36.0087141,12.4403278 L33.7948545,4.79657998 L35.7279942,4.79657998 L37.035894,10.5614535 L38.5096737,4.79657998 L40.5512734,4.79657998 L41.9165932,10.5614535 L43.281913,4.79657998 L45.1002127,4.79657998 L42.828933,12.4403278 L42.816173,12.4403278 Z M53.4324913,12.5557535 L51.4993516,12.5557535 L51.4993516,11.4720342 C51.0463717,12.1004631 50.1914518,12.6711792 48.998392,12.6711792 C47.0652523,12.6711792 45.5914726,11.0744567 45.5914726,8.67616673 C45.5914726,6.27787674 47.1226723,4.79657998 49.055812,4.79657998 C50.2488718,4.79657998 51.0974117,5.36729605 51.5567716,5.99572497 L51.5567716,4.9120057 L53.4899113,4.9120057 L53.4324913,12.5557535 Z" id="形状"></path>
                        <path d="M49.5662119,6.44460278 C48.5454121,6.44460278 47.5820323,7.18845743 47.5820323,8.61204133 C47.5820323,10.0356252 48.5454121,10.8949056 49.5662119,10.8949056 C50.5870118,10.8949056 51.5503916,10.0933381 51.6078116,8.66975419 C51.5503916,7.29747061 50.5870118,6.50231564 49.5662119,6.44460278 L49.5662119,6.44460278 Z" id="路径"></path>
                        <path d="M29.4692152,6.16245102 C28.5632554,6.16245102 27.8231755,6.73316708 27.6509155,7.75917349 L31.2300949,7.81688636 C31.2300949,6.8485928 30.4325951,6.22016388 29.4692152,6.16245102 L29.4692152,6.16245102 Z" id="路径"></path>
                        <path d="M15.1652575,6.16245102 C14.1444577,6.16245102 13.1810779,6.90630566 13.1810779,8.32988956 C13.1810779,9.75347346 14.1444577,10.6127538 15.1652575,10.6127538 C16.1860574,10.6127538 17.1494372,9.81118632 17.2068572,8.38760242 C17.2642772,6.96401853 16.1860574,6.16245102 15.1652575,6.16245102 L15.1652575,6.16245102 Z" id="路径"></path>
                    </g>
                    <g transform="translate(67.6025, 13.7549)" id="路径">
                        <polygon points="3.97473935 14.6590666 0 14.6590666 3.23465947 0 7.26681882 0"></polygon>
                        <polygon points="8.68317859 14.6590666 5.90149904 14.6590666 9.19357851 0 11.9752581 0"></polygon>
                        <polygon points="12.370818 14.6590666 10.8970382 14.6590666 14.1891177 0 15.6692775 0"></polygon>
                    </g>
                </g>
            </g>
        </g>
    </g>
</svg>