<?xml version="1.0" encoding="UTF-8"?>
<svg width="204px" height="38px" viewBox="0 0 204 38" version="1.1" xmlns="http://www.w3.org/2000/svg" xmlns:xlink="http://www.w3.org/1999/xlink">
    <title>INFINILabs-logo-color-RGB</title>
    <g id="文档中心" stroke="none" stroke-width="1" fill="none" fill-rule="evenodd">
        <g id="docs" transform="translate(-300, -30)" fill="#FFFFFF" fill-rule="nonzero">
            <g id="INFINILabs-logo-color-RGB" transform="translate(300, 30)">
                <g id="编组" transform="translate(155.6629, 14.5902)">
                    <polygon id="路径" points="2.49476188 0.965959328 2.49476188 13.9686118 7.62903293 13.9686118 7.62903293 15.9509284 0 15.9509284 0 0.965959328"></polygon>
                    <path d="M14.5598731,3.8806366 C16.5948495,3.8806366 17.991235,4.82979664 18.7320005,5.79575597 L18.7320005,4.07382847 L21.2437915,4.07382847 L21.2437915,15.9509284 L18.7320005,15.9509284 L18.7320005,14.1870027 C17.9656914,15.2033599 16.5267332,16.1525199 14.5173004,16.1525199 C11.3924621,16.1525199 8.88067115,13.632626 8.88067115,9.96198055 C8.88067115,6.2913351 11.3924621,3.8806366 14.5598731,3.8806366 L14.5598731,3.8806366 Z M15.0877749,6.01414677 C13.231604,6.01414677 11.4350349,7.39168877 11.4350349,9.96198055 C11.4350349,12.5322723 13.231604,14.0190097 15.0877749,14.0190097 C16.9439459,14.0190097 18.740515,12.5742706 18.740515,10.0039788 C18.740515,7.433687 16.9694895,6.01414677 15.0877749,6.01414677 L15.0877749,6.01414677 Z" id="形状"></path>
                    <path d="M31.222839,3.8806366 C34.4157936,3.8806366 36.8850119,6.29973475 36.8850119,9.96198055 C36.8850119,13.6242263 34.39025,16.1525199 31.222839,16.1525199 C29.2304353,16.1525199 27.8170207,15.270557 27.025168,14.2374005 L27.025168,15.959328 L24.5304061,15.959328 L24.5304061,0 L27.025168,0 L27.025168,5.84615385 C27.8085062,4.77099912 29.3240953,3.8806366 31.222839,3.8806366 Z M30.6779081,6.01414677 C28.8217371,6.01414677 27.025168,7.45888594 27.025168,10.0039788 C27.025168,12.5490716 28.8217371,14.0190097 30.6779081,14.0190097 C32.5340791,14.0190097 34.3476773,12.5322723 34.3476773,9.96198055 C34.3476773,7.39168877 32.5511081,6.01414677 30.6779081,6.01414677 Z" id="形状"></path>
                    <path d="M43.7221921,16.1525199 C40.8357611,16.1525199 38.8007847,14.4725906 38.6986101,12.3138815 L41.2785175,12.3138815 C41.3636629,13.2882405 42.3087775,14.0778073 43.6796193,14.0778073 C45.0504612,14.0778073 45.8848867,13.4730327 45.8848867,12.658267 C45.8848867,10.331565 38.8944447,11.6671088 38.8944447,7.30769231 C38.8944447,5.40937224 40.6910138,3.8806366 43.5263575,3.8806366 C46.3617012,3.8806366 48.0475813,5.32537577 48.183814,7.69407604 L45.6890521,7.69407604 C45.6039067,6.66091954 44.7950248,5.9469496 43.4412121,5.9469496 C42.0873993,5.9469496 41.4062357,6.48452697 41.4062357,7.28249337 C41.4062357,9.67639257 48.2008431,8.34084881 48.3370758,12.6330681 C48.3370758,14.6405836 46.5660503,16.1441202 43.7221921,16.1441202 L43.7221921,16.1525199 Z" id="路径"></path>
                </g>
                <g id="编组" transform="translate(42.7856, 6.4257)">
                    <polygon id="路径" points="0 24.2581786 5.10021286 0.764367816 11.3243458 0.764367816 6.22413289 24.2581786"></polygon>
                    <polygon id="路径" points="10.8049585 24.2581786 16.0754622 0 16.6714804 0 29.9371426 13.7082228 32.7469427 0.764367816 38.4857465 0.764367816 33.1896991 25.1485411 32.6532827 25.1485411 19.3365332 11.4403183 16.5522768 24.2581786 10.813473 24.2581786"></polygon>
                    <polygon id="路径" points="38.4261447 24.2581786 43.5263575 0.764367816 59.7380525 0.764367816 58.6992779 5.54376658 48.6776577 5.54376658 47.6644267 10.2307692 56.6217288 10.2307692 55.5914688 14.9765694 46.6341667 14.9765694 44.6162194 24.2581786 38.4261447 24.2581786"></polygon>
                    <polygon id="路径" points="58.8355107 24.2581786 63.9357235 0.764367816 70.1598564 0.764367816 65.0596436 24.2581786 58.8355107 24.2581786"></polygon>
                    <polygon id="路径" points="69.4105764 24.2581786 74.6810802 0 75.2770984 0 88.5427605 13.7082228 91.3525606 0.764367816 97.0913644 0.764367816 91.795317 25.1485411 91.2589006 25.1485411 78.4955966 11.4403183 75.6687675 24.2581786 69.4105764 24.2581786"></polygon>
                    <polygon id="路径" points="96.9210735 24.2581786 102.021286 0.764367816 108.245419 0.764367816 103.145206 24.2581786"></polygon>
                </g>
                <g id="编组">
                    <path d="M19.2599023,37.9916004 C8.64226387,37.9916004 0,29.474359 0,19 C0,8.52564103 8.64226387,0 19.2599023,0 C29.8775408,0 38.5198047,8.52564103 38.5198047,19 C38.5198047,29.474359 29.8775408,38 19.2599023,38 L19.2599023,37.9916004 Z M19.2599023,2.05791335 C9.79172753,2.05791335 2.08606369,9.65959328 2.08606369,19 C2.08606369,28.3404067 9.79172753,35.9420866 19.2599023,35.9420866 C28.7280771,35.9420866 36.433741,28.3404067 36.433741,19 C36.433741,9.65959328 28.7280771,2.05791335 19.2599023,2.05791335 Z" id="形状"></path>
                    <g transform="translate(8.0548, 4.8214)" id="路径">
                        <path d="M22.0697024,3.88903625 C20.4774824,2.1755084 18.4850787,0.82316534 16.2372386,0 C16.2372386,0.00839964633 16.2372386,0.0167992927 16.2372386,0.0167992927 L13.5636713,12.2298851 L4.01035102,5.52696729 L2.68208189,11.7931034 L18.0934096,22.4270557 L22.0867315,3.88903625"></path>
                        <path d="M7.83338203,18.7564103 L2.04349096,14.72458 L0,24.0733864 C1.60924913,25.7617153 3.61016737,27.0720601 5.85800743,27.8784262 L7.83338203,18.7564103 Z"></path>
                    </g>
                </g>
            </g>
        </g>
    </g>
</svg>